<svg id="Слой_1" data-name="Слой 1" xmlns="http://www.w3.org/2000/svg" viewBox="0 0 175 175">
  <circle class="cls-1" cx="87.5" cy="87.5" r="87.5" fill="#1d1d1d"/>
  <path class="cls-2" d="M118.91,53c7.53-8,22.18-8.83,32.48-8.87,13.6,0,36.51,2.68,39.92,18.93A79.1,79.1,0,1,1,118.91,53" transform="translate(-58 -38)" fill="currentColor"/>
  <path class="cls-3" d="M107.59,77.33c-2.57.67-4,3.93-4,6.44.32-.24,1.82-2.59,2.12-2.81,0,.11-.46,1.5-.19,2.08a28.87,28.87,0,0,0,3.41-4.6c-.17-1.15-.86-.91-1.37-1.11m-.28,6.57c1.44-1.18,2.7-2.8,4.54-3.84.19-.08-.71-.91-1.86-.44C109.11,80,108.09,81.09,107.31,83.9Zm55.84,76.54c-1.78,2.88-9.69,2.77-13.67.54C150.42,159.5,161.3,159.52,163.15,160.44Zm-27.69-4.73c1-3,2.9-3.93,5.26-2.87,2.29.53,4.75.33,7.13.48a12.29,12.29,0,0,1,7.29.51c.9.35,1.07.61,2.25.21,3.27-1.2,5.33-.76,7.53-.46,2.63.74,4.58-.64,6.15-.7,1.26,0,3.33,2.74.49,3.36a12.63,12.63,0,0,1-2.68.17c-4.53,0-8.52.28-13.77.32-4.27-1.11-9.25,0-16.63-.47A11.76,11.76,0,0,1,135.46,155.71Zm10.6-15.17c2.93.73,4.29-.5,5.68-1.16a5.52,5.52,0,0,1,3.14-.06,8.31,8.31,0,0,0,7.74-.42,2.14,2.14,0,0,1,3,.34c.83.87,1.73,1.72,0,2.57-1.41.74-2.39,3.54-4.64,5.5-1.57,1.61-2.67,2.25-3.75,2.23-1.27,0-1.47-1-2.73-2.06a17,17,0,0,0-3.84-2.09A9.08,9.08,0,0,1,146.06,140.54Zm26.81-76.72a5.42,5.42,0,0,0-4.29-.68,9.39,9.39,0,0,0-4.73,3.57h1.85c-.84.74-3.93,2.58-3.15,3.64l5.12-3.25Zm-8-4.75a14.4,14.4,0,0,0-5.28,3.5c-1.65,1.71-2.68,3.66-2.61,5.26l3.07-2.7c-.44,1.26-1.38,2.53-.39,3.24l6.8-6c-.78-.6-1.75-1-2-1.59C164.23,60.39,164.31,59.86,164.89,59.07Zm3.23-3.71c-4.81-3.2-12.75-3.12-17.75-.4a13.67,13.67,0,0,0-7.46,11.52A17.76,17.76,0,0,1,154.3,56.41C158.48,55.14,163.19,55,168.12,55.36Zm-24.2,56.12c-3.43-2.06-7.68-2.7-12.8-2l-.42.39a46,46,0,0,1,13.42,1.94Zm22.27.09c3.7-1.7,7.42-1.95,12-1l.25.23A42.15,42.15,0,0,0,166,112Zm-24.27,13.05c-4.1,3.45-10.55,4.73-13.18,1.78a17.39,17.39,0,0,0,5.32-.75A27.14,27.14,0,0,1,141.92,124.62Zm24.42-1.79.48.79a7.13,7.13,0,0,0,2.87,1.16c1.71.58,3,1.12,4.45.6a3.25,3.25,0,0,0,2.25-2.23c-.61-.56-1.2-1.09-1.95-1a17.31,17.31,0,0,1-3,.4C169.81,122.6,167.52,122.12,166.34,122.83Zm-39.06-5.16c.71-2.42,4.75-3.51,7-1.69A34.08,34.08,0,0,0,127.28,117.67Zm8.58,16.16a14.26,14.26,0,0,1-14.43-11.27c.71,0,2.31-.22,3.41.91a3.77,3.77,0,0,0,4.67,1.63,9.39,9.39,0,0,1-1.66-1.45c-.61-1,0-1.79,1.11-1.84.52,0,1.22.52,1.75.49.89-.06,1.62-.67,2.47-.51,1.38.26,2.12.37,2.58.07s.65-1.09.81-2.65c1.14-.19,1.14,1.87,1.83,2.25,1,.55,2.71.11,3.64.3a1.38,1.38,0,0,1,1.27,1.6c2.16.39,5-2.9,5.69-4.4.34,3.92-2.09,9.55-5.7,12.47A12,12,0,0,1,135.86,133.83Zm26.32-9.73c2.19,7.07,7,9.83,13.09,9.81,7,0,11.64-6.69,12.06-12.36,0-.69-.07-1.41-.14-2.18,0-.29,0-.57,0-.84a3,3,0,0,0-.08-.32,5.31,5.31,0,0,0-1.92-2.46,10.92,10.92,0,0,1-.51,3.66c-.49,1.4-2.57,4-4.09,4.37-.78.18-1.4-.1-1.89.13s-.37.46-.72,1c-.94,1.79-1.82,2.28-3.13,2.47-2.46.37-6.05-1.29-8.25-2.4C165,124.15,164.13,123.71,162.18,124.1Zm24.9,3.25c-2.26,4.69-6.11,7.88-11.64,8.09-7.95.3-13.24-4.56-15.95-13.69-.87-2.68-1.92-4-5.32-3.54-3.13.38-3.19,5.66-6,10.31-2.59,4.21-6.09,6.53-12.14,6.93-8.52.55-15.08-5.83-16.82-13.85-2.65-2.08-2.87-4.36-1.92-7.44a3.88,3.88,0,0,0-1.9-.86l-6.61-.32c-1.13,4.55-2,8.1-.74,12.76a42.89,42.89,0,0,0,4.3,9.88,54.83,54.83,0,0,0,5.16,7.28,27.14,27.14,0,0,1,2.91,5.22c.37.81.35,2.31-.53,2.63-6-5-8.58-6.21-11-14-.87-2.84-1.1-5.73-1.89-8.53a3.73,3.73,0,0,0-.74-1.4,6.32,6.32,0,0,1-.92-2.64,8.88,8.88,0,0,0-1-3.13,13.25,13.25,0,0,0-4.25-4.78c-.6-.43-2.89-.6-3.37.94.08.9,1.37,1.94,3.08,3.42a9,9,0,0,1,2.12,3.56c.71,2.37,1.47,3.6,2.71,3.4a1.68,1.68,0,0,1,.39,1.23c-.38,1.21-.91,2.37-1.42,3.64-1.71,0-1.52-3.43-2-5.11-.8-3-1.45-3.25-4.61-2.72a8.83,8.83,0,0,1-.67-3.25,2.82,2.82,0,0,0-1.09,2c-.5,2.1.23,7.81.42,9.5.34,4.21,2.5,7.61,5.37,10.5a5.62,5.62,0,0,0,3.64,1.51c1.55,0,2.28-.51,2.78-.18s1.69,4.66,1.82,5.68a45.71,45.71,0,0,0,8.53,21.79,21.91,21.91,0,0,0,4.79,5.6c-1.42-3.78-3.47-7.37-5.07-10.94s-3.74-8.32-3.14-11.43a48.6,48.6,0,0,0,18.87,18c7.68,3.86,17.62,4.14,25.57,3.74,7.23-.37,12.75-3.67,15.9-10.36a56.7,56.7,0,0,1,3-5.68,24.77,24.77,0,0,0,2.7-8.39,46.67,46.67,0,0,1,.83-5.58c.41-1.55,2.47-4.87,3.26-7.13A57.64,57.64,0,0,0,187.08,127.35Zm1,4.33c-.41-.1-.71.32-.93.91a14.21,14.21,0,0,0-.65,3,34.72,34.72,0,0,1-1.26,6.53c-.34,1.08-.81,2-.52,2.83a2.28,2.28,0,0,0,2.29-1.35c.58-1.24-.06-4.32,0-5.69a8.17,8.17,0,0,1,.27-1.43A17.42,17.42,0,0,0,188.1,131.68Zm-78.71-21.4,6.1-.31c12.05-1.08,25.6-5.1,35.47,4.18a22.41,22.41,0,0,1,7.11-.17,2.67,2.67,0,0,0,1.48-.28c5-3.48,7.71-4.84,13.82-4.78a32.81,32.81,0,0,1,10.12,1.94c1.32.29,2.26.52,3.4.68a45.82,45.82,0,0,0,.15-5.48h0v-.5h0V105h0a41.17,41.17,0,0,0-3.71-14.89c-2.83-6.2-7.42-10-14.15-11.2-1.53-.27-3.08-.49-5-.79a27.77,27.77,0,0,0,7.6-2.79,33.84,33.84,0,0,1-6.24,0c3.22-1,9.47-1.4,10.23-5.24-1.63.56-12.93,4.86-13.73,4.11,3.89-1.49,8.47-3,12.84-5.61a1.89,1.89,0,0,0,1-2.92c-.9-1.45-1.68-.11-2.33.36-7.08,5-16.31,9.83-25,11.14-4.77-2.31-10.89-1.61-16.67-.3a66.73,66.73,0,0,0-12.64,4c-3.84,1.74-5.89,5.21-6.45,9.35a33.33,33.33,0,0,0-.29,7.85,15.49,15.49,0,0,1,0,5.91C111.8,106.24,110,107.68,109.39,110.28ZM111,168.62c-1.71,2.59-.81,4.79-3.33,7.5-1.1,2.46,1.93,8,3.43,9.87,3.32,4,7.32,7.76,10.76,11.78a74.06,74.06,0,0,1-7.51-137.25c-3.41,4.1-3.94,8.65-3.9,13.84-8.79-.65-12.48,4.9-13.81,11.81a54.54,54.54,0,0,0,0,17.92,9.78,9.78,0,0,0,.35-2.91c.26-6.1.59-12.18,3.17-17.86,3.3-7.27,7.85-7.73,12.68-7.63-1.18-6.48,3.19-12.1,7.92-15.95a13.07,13.07,0,0,0,2.12-1.94c5.32-6.81,13-7.9,20.73-8.66-9,3-12.52,6.69-14.1,10.65,5.88-4.9,12.66-7.3,19.45-8.52a23.08,23.08,0,0,0-6.11,4.21c7.1-2.79,14.2-3.95,22.84-4-1.29-1.49-10.26-1.55-11.54-1.52,7.42-2.11,15.84-.29,21.76,2.65,4.86,2.42,9.17,5.62,11.44,10.72a18.62,18.62,0,0,1,1.49,5.49c3.06,3.53,4.32,11.49,3.22,15.94A51.21,51.21,0,0,1,192,97.34c0,.26.05.52.07.79,3.08-10.25,4.68-21.86-2.82-30V68a74.08,74.08,0,0,1-10.62,125.76c.27.54-2.66-1.69-3.42-4-.21-1.59-1.43-4.23-3.77-4.08-3.07,7.38-5.78,13.79-12,19.29C139.58,198.67,117.75,179.66,111,168.62Z" transform="translate(-58 -38)" fill="#1d1d1d"/>
</svg>
